<?xml version="1.0" encoding="UTF-8" standalone="no"?>
<svg width="378px" height="427px" viewBox="0 0 378 427" version="1.1" xmlns="http://www.w3.org/2000/svg" xmlns:xlink="http://www.w3.org/1999/xlink">
    <!-- Generator: Sketch 49.3 (51167) - http://www.bohemiancoding.com/sketch -->
    <title>Gopher flip</title>
    <desc>Created with Sketch.</desc>
    <defs>
        <path d="M0.723047831,6.91657369 L12.7457578,10.3118634 L40.3743464,70.996546 L45.519691,145.286139 L32.7543371,156.512863 C31.5790517,157.395226 30.6723448,157.754696 30.0342165,157.591272 C29.077024,157.346136 28.8808182,156.693196 28.5127705,155.426602 C17.1806729,116.428504 9.94325805,88.2851518 6.80052598,70.996546 C3.55572321,53.146435 1.52989716,31.7864443 0.723047831,6.91657369 Z" id="path-1"></path>
        <path d="M82.3025968,17.5935025 C140.976472,17.517396 202.935307,11.9031835 268.179101,0.750865084 C277.214029,38.8944851 293.974457,83.3768145 299.567796,112.593732 C303.296688,132.071678 299.94827,151.748899 289.52254,171.625395 L93,176 C61.8212692,159.583267 45.4270431,149.530402 43.8173217,145.841404 C42.2076004,142.152405 40.2397901,117.935759 37.9138908,73.1914655 L82.3025968,17.5935025 Z" id="path-2"></path>
        <polygon id="path-3" points="11 8 36.8448903 17.8256115 60.2504089 8.01151525 62 33 36.8448903 24.0611088 12.5770548 30.5242401"></polygon>
        <polygon id="path-4" points="64.9389353 3.99829275 63.767336 39.6153035 31.0543732 38.5390544 30.59429 5.01538048"></polygon>
        <polygon id="path-5" points="1.99709809 1.57917444 47.7173501 1.24989699 51.7940815 78.872272 5.88526015 75.769726"></polygon>
    </defs>
    <g id="Page-1" stroke="none" stroke-width="1" fill="none" fill-rule="evenodd">
        <g id="Gopher-flip" transform="translate(0.000000, 1.000000)">
            <g id="glass" transform="translate(346.000000, 193.000000) scale(-1, 1) translate(-346.000000, -193.000000) translate(314.000000, 163.000000)">
                <ellipse id="Oval-2" stroke="#979797" stroke-width="0.5" fill="#D8D8D8" cx="31.8846154" cy="57.5416667" rx="17.1153846" ry="2.45833333"></ellipse>
                <path d="M29.5384615,25.6373626 L1.21922781,2.01693034 C0.995735809,1.76068746 0.937728288,1.52777932 1.04520524,1.31820589 C1.1526822,1.10863247 1.38452947,1.00256384 1.74074707,1 L62.412804,1 C62.8626974,0.955204933 63.1450638,1.0260029 63.2599035,1.21239391 C63.3747431,1.39878493 63.2911227,1.60349881 63.0090421,1.82653556 L34.4615385,25.6373626 L34.4615385,56.4880952 L29.5384615,56.4880952 L29.5384615,25.6373626 Z" id="Combined-Shape" stroke="#979797" stroke-width="0.5" fill="#D8D8D8"></path>
                <polygon id="Triangle-3" fill="#8F4401" transform="translate(32.000000, 15.500000) scale(1, -1) translate(-32.000000, -15.500000) " points="32 6 55 25 9 25"></polygon>
            </g>
            <path d="M302.236384,221.113891 C302.236384,221.113891 313.746384,221.523891 323.726384,217.333891 C333.706384,213.143891 347.376384,209.333891 345.116384,194.753891 C343.726384,185.753891 322.196384,190.403891 322.196384,190.403891 C322.196384,190.403891 306.426384,196.203891 295.926384,195.613891" id="Hand_1" stroke="#000000" stroke-width="3" fill="#F4D5B8" fill-rule="nonzero"></path>
            <path d="M198.156384,26.5838911 C198.156384,26.5838911 198.406384,0.333891114 212.406384,0.583891114 C226.406384,0.833891114 220.656384,31.0838911 220.656384,31.0838911" id="Ear_1" stroke="#000000" stroke-width="3" fill="#EE4A73" fill-rule="nonzero"></path>
            <path d="M204.356384,390.413891 C204.356384,390.413891 224.106384,424.533891 234.726384,417.853891 C245.346384,411.173891 221.036384,382.373891 221.036384,382.373891" id="Leg_1" stroke="#000000" stroke-width="3" fill="#F4D5B8" fill-rule="nonzero"></path>
            <path d="M42.1563841,320.823891 C28.9063841,319.323891 28.9063841,317.573891 22.1563841,319.323891 C15.4063841,321.073891 -2.84361587,332.323891 4.15638413,337.573891 C11.1563841,342.823891 11.9063841,344.573891 21.1563841,343.073891 C30.4063841,341.573891 49.6563841,337.323891 49.6563841,337.323891" id="Tail" stroke="#000000" stroke-width="3" fill="#F6D8BC" fill-rule="nonzero" transform="translate(26.120346, 331.091341) rotate(9.000000) translate(-26.120346, -331.091341) "></path>
            <g id="Eye_R" transform="translate(262.096384, 62.023891)" fill-rule="nonzero">
                <ellipse id="Oval" fill="#FFFFFF" cx="46.87" cy="45.21" rx="45.3" ry="43"></ellipse>
                <path d="M90.67,45.21 C90.28,69.03 70.04,86.37 46.87,86.71 C23.7,87.05 3.45,68.52 3.07,45.21 C2.68,21.39 24.3,4.04 46.87,3.71 C70.04,3.37 90.29,21.9 90.67,45.21 C90.67,47.14 93.67,47.15 93.67,45.21 C93.32,23.73 77.72,6.42 57.07,1.77 C36.21,-2.92 13.96,7.47 4.37,26.53 C-5.13,45.42 1.84,67.75 18.07,80.28 C34.92,93.28 60.6,92.68 77,79.28 C87.3364075,70.989658 93.4460734,58.5284319 93.67,45.28 C93.7,43.28 90.7,43.28 90.67,45.21 Z" id="Shape" fill="#000000"></path>
                <ellipse id="Oval" stroke="#1D1D1B" fill="#000000" cx="80.51" cy="44.73" rx="11.67" ry="11.34"></ellipse>
                <ellipse id="Oval" stroke="#1D1D1B" fill="#FFFFFF" cx="79.63" cy="43.88" rx="3.71" ry="3.69"></ellipse>
            </g>
            <path d="M45.5263841,113.583891 C46.4363841,100.583891 67.5263841,55.5838911 103.526384,39.5838911 C139.526384,23.5838911 153.526384,23.5838911 188.526384,20.5838911 C223.526384,17.5838911 276.526384,48.5838911 286.526384,61.5838911 C296.526384,74.5838911 303.526384,86.3838911 305.526384,103.983891 C307.526384,121.583891 307.526384,129.583891 310.526384,147.583891 C313.526384,165.583891 309.526384,234.583891 298.526384,260.583891 C291.256384,277.773891 280.046384,320.323891 255.646384,353.583891 C243.146384,370.583891 227.186384,385.173891 206.526384,392.583891 C145.526384,414.583891 109.526384,401.943891 100.526384,401.583891 C74.6263841,400.583891 69.2563841,393.113891 39.5263841,357.583891 C21.5263841,336.083891 18.6663841,310.343891 18.6663841,292.333891 C18.6663841,270.463891 48.6663841,218.583891 49.6663841,188.583891 C51.4363841,135.223891 43.0563841,148.913891 45.5263841,113.583891 Z" id="Body" stroke="#000000" stroke-width="3" fill="#EE4A73" fill-rule="nonzero"></path>
            <g id="Leg_2" transform="translate(71.096384, 385.023891)" fill-rule="nonzero" stroke="#000000" stroke-width="3">
                <path d="M4.06,5.09 C4.06,5.09 -6.44,36.84 9.56,38.59 C25.56,40.34 27.06,9.34 27.06,9.34" id="Shape" fill="#F4D5B8"></path>
                <path d="M0.83,0.72 C0.83,0.72 3.19,12.6 8.07,15.72 C8.07,15.72 8.95,7.22 9.78,6.89 C10.61,6.56 21.95,15.89 20.28,17.22 C18.61,18.55 29.97,11.32 29.96,8.02" id="Shape" fill="#EE4A73"></path>
            </g>
            <path d="M201.596384,373.563891 C180.926384,362.453891 180.456384,345.813891 196.596384,325.113891 C208.466384,309.903891 221.926384,294.783891 229.326384,251.113891 C233.256384,227.903891 256.146384,200.543891 277.326384,202.113891 C298.506384,203.683891 308.536384,226.273891 300.756384,247.863891 C292.976384,269.453891 264.696384,352.393891 244.306384,363.113891 C244.306384,363.113891 220.386384,383.673891 201.596384,373.563891 Z" id="Belly" fill="#F194AA" fill-rule="nonzero"></path>
            <g id="Eye_L" transform="translate(140.096384, 65.023891)" fill-rule="nonzero">
                <ellipse id="Oval" fill="#FFFFFF" cx="56.7" cy="52.56" rx="54.47" ry="51"></ellipse>
                <path d="M109.67,52.56 C109.32,77.56 90.17,96.83 66.25,101.27 C41.83,105.79 15.83,92.35 6.72,69.01 C-2.28,45.84 9.72,20.82 30.72,9.39 C52.72,-2.55 81.19,2.86 97.72,21.3 C105.32066,29.9468389 109.54296,41.0476862 109.61,52.56 C109.61,53.3884271 110.281573,54.06 111.11,54.06 C111.938427,54.06 112.61,53.3884271 112.61,52.56 C112.31,31.09 98.77,12.82 79.23,4.56 C59.23,-3.92 35.63,-0.01 19.02,13.73 C2.73973406,27.4153281 -3.31772954,49.7788935 3.83,69.81 C10.99,89.81 30.42,102.51 50.96,104.81 C82.15,108.26 112.23,84.55 112.67,52.59 C112.678284,51.7615729 112.013427,51.0832843 111.185,51.075 C110.356573,51.0667157 109.678284,51.7315729 109.67,52.56 Z" id="Shape" fill="#1D1D1B"></path>
                <ellipse id="Oval" stroke="#1D1D1B" fill="#000000" cx="72.57" cy="45.22" rx="17.67" ry="16"></ellipse>
                <ellipse id="Oval" stroke="#1D1D1B" fill="#FFFFFF" cx="67.9" cy="40.57" rx="4.67" ry="4.65"></ellipse>
            </g>
            <g id="Ear_2" transform="translate(66.096384, 18.023891)" fill-rule="nonzero">
                <path d="M23.56,49.56 L3.89,24.56 C3.89,24.56 -5.94,8.65 9.39,2.36 C24.72,-3.93 35.22,8.23 36.06,9.36 C36.9,10.49 49.23,29.19 49.23,29.19" id="Shape" stroke="#000000" stroke-width="3" fill="#EE4A73"></path>
                <path d="M21.06,17.72 C21.06,17.72 20.96,26.72 25.01,30.72 C29.06,34.72 32.73,37.55 34.73,36.05 C36.73,34.55 31.23,23.55 28.9,22.22 C26.57,20.89 25.06,17.22 21.06,17.72 Z" id="Shape" fill="#030405"></path>
                <path d="M19.56,17.72 C19.56,22.21 20.42,27.22 23.16,30.87 C24.5,32.66 33.79,41.87 36.22,36.59 C37.94,32.87 34.43,27.31 32.55,24.26 C31.36,22.33 29.9,21.33 28.3,19.82 C26.08,17.72 24.3,16.07 21.05,16.22 C19.12,16.31 19.11,19.31 21.05,19.22 C23.82,19.1 27.51,22.45 29.21,24.68 C31.1734992,27.3421081 32.6155321,30.3517157 33.46,33.55 C34.3,36.7 29.71,32.97 29,32.39 C26.7486307,30.756144 24.9798028,28.5451092 23.88,25.99 C22.9364707,23.3371589 22.4824407,20.5350489 22.54,17.72 C22.4522127,16.9635464 21.8115304,16.3929162 21.05,16.3929162 C20.2884696,16.3929162 19.6477873,16.9635464 19.56,17.72 Z" id="Shape" fill="#1D1D1B"></path>
            </g>
            <g id="Nose" transform="translate(253.096384, 100.023891)" fill-rule="nonzero">
                <ellipse id="Oval" fill="#9B8E7D" cx="38.81" cy="15.04" rx="18.33" ry="13.18"></ellipse>
                <path d="M55.64,15.04 C54.71,30.8 22.91,30.8 21.97,15.04 C21.48,6.76 32.53,3.55 38.8,3.36 C45.8,3.14 55.16,7.04 55.63,15.04 C55.74,16.96 58.74,16.97 58.63,15.04 C57.47,-4.62 20.13,-4.62 18.96,15.04 C18.37,25.04 30.89,29.48 38.79,29.72 C47.64,29.99 58.05,24.72 58.62,15.04 C58.75,13.09 55.75,13.09 55.64,15.04 Z" id="Shape" fill="#000000"></path>
                <path d="M25.34,46.09 L25.34,70.84 C25.34,70.84 23.96,74.28 33.61,74.77 C43.26,75.26 44.36,74.77 44.36,74.77 C44.36,74.77 49.36,76.41 51.25,68.38 C53.14,60.35 58.14,45.27 58.14,45.27 L25.34,46.09 Z" id="Shape" fill="#FFFFFF"></path>
                <path d="M23.83,46.09 L23.83,68.09 C23.83,70.09 23.42,70.77 23.96,72.43 C25.11,75.96 30.71,76.13 33.6,76.35 C36.97,76.6 41.37,77.24 44.73,76.35 C43.16,76.79 45.66,76.53 46.22,76.46 C47.788239,76.1909103 49.2077077,75.3676184 50.22,74.14 C53.69,70.42 54.22,62.79 55.67,58.06 C56.9033333,53.9533333 58.19,49.8633333 59.53,45.79 C59.6508202,45.3381124 59.5553944,44.8557447 59.2716166,44.4838979 C58.9878388,44.1120511 58.5477526,43.8927136 58.08,43.89 L25.27,44.71 C23.34,44.71 23.33,47.71 25.27,47.71 L58.08,46.89 L56.63,44.99 C54.12,52.62 51.63,60.3 49.74,68.1 C49.17,70.43 48.03,73.48 45.2,73.53 C44.74,73.53 44.34,73.29 43.88,73.45 C41.51,74.31 37.78,73.57 35.36,73.45 C33.19,73.37 26.77,73.5 26.77,70.88 L26.77,46.09 C26.6280423,45.3909028 26.0133645,44.8884962 25.3,44.8884962 C24.5866355,44.8884962 23.9719577,45.3909028 23.83,46.09 Z" id="Shape" fill="#000000"></path>
                <path d="M37.66,24.71 C37.66,24.71 29.26,20.71 20.59,22.92 C11.92,25.13 1.76,34.09 2.59,42.75 C3.42,51.41 12.26,57.25 17.59,57.42 C19.59,57.48 24.31,59.25 35.33,59.25 C45.18,59.25 46.83,58.32 52.66,58.08 C60.13,57.78 65.42,52.08 65.26,41.58 C65.1,31.08 57.93,25.75 50.26,26.25 C45.9984714,26.6263168 41.7054482,26.101614 37.66,24.71 Z" id="Shape" fill="#F4D5B8"></path>
                <path d="M38.42,23.42 C24.64,17.17 4.23,23.54 1.2,39.88 C-0.13,47.03 5.34,53.61 11.1,56.96 C15.85,59.73 23.2,60.04 28.56,60.51 C37.02,61.25 45.36,60.16 53.77,59.51 C60.96,58.95 65.19,52.99 66.43,46.39 C67.79,39.11 65.7,31.51 59.57,27.12 C53.44,22.73 44.93,25.97 38.07,23.27 C36.27,22.56 35.49,25.46 37.27,26.16 C41.74,27.92 46.7,27.85 51.41,27.73 C60.02,27.49 63.82,35.73 63.75,43.13 C63.67,50.79 59.26,56.26 51.56,56.65 C45.49,56.95 39.56,57.8 33.46,57.74 C22.97,57.64 8.59,56.58 4.56,45 C1.72,36.84 10.04,29.58 16.33,26.15 C22.62,22.72 30.6,23.15 36.92,26.01 C38.65,26.8 40.18,24.22 38.42,23.42 Z" id="Shape" fill="#000000"></path>
            </g>
            <g id="Credit" transform="translate(185.000000, 325.000000)" fill="#FFB6C9">
                <path d="M3.46322816,38.3053584 L2.68129105,36.5168175 C2.14290813,35.2853632 2.36940018,34.5053136 3.38828206,34.0598658 L5.66793863,33.0632165 C6.69415059,32.614564 7.42056965,32.9780078 7.95895257,34.2094621 L8.74088968,35.998003 C8.82100618,36.1812551 8.7756265,36.2971373 8.59237437,36.3772538 L7.70543403,36.7650177 C7.52218189,36.8451342 7.40629969,36.7997545 7.32618318,36.6165024 L6.68204647,35.1431552 C6.54745074,34.8352916 6.36928083,34.7472946 6.12005792,34.856253 L4.37549759,35.6189622 C4.13360477,35.724716 4.08454203,35.9120575 4.21913776,36.2199211 L4.86327448,37.6932683 C4.94339098,37.8765204 4.8980113,37.9924026 4.71475917,38.0725191 L3.842479,38.4538737 C3.65922686,38.5339902 3.54334466,38.4886105 3.46322816,38.3053584 Z M7.11971226,42.3804606 L5.93203467,40.8313557 C5.11428944,39.7647589 5.1472934,38.9531638 6.02977528,38.2765769 L8.00424913,36.7627748 C8.8930798,36.0813204 9.68541861,36.2601365 10.5031638,37.3267333 L11.6908414,38.8758382 C11.8125297,39.034558 11.7962359,39.1579375 11.6375161,39.2796258 L10.8693124,39.8685971 C10.7105927,39.9902854 10.5872131,39.9739915 10.4655249,39.8152717 L9.48715111,38.5391648 C9.2827148,38.2725156 9.08865106,38.2297691 8.87279218,38.3952652 L7.36178004,39.5537376 C7.15226995,39.7143661 7.14952119,39.9080061 7.35395749,40.1746553 L8.33233125,41.4507622 C8.45401952,41.6094819 8.43772567,41.7328615 8.27900591,41.8545498 L7.52349984,42.433786 C7.36478007,42.5554742 7.24140054,42.5391804 7.11971226,42.3804606 Z M9.65834997,42.1535038 L11.160531,43.4859888 C11.3520441,43.6558674 11.4622747,43.6039326 11.5472139,43.5081761 L11.690549,43.3465869 C11.7754883,43.2508303 11.8085927,43.1411759 11.6170796,42.9712973 L10.5996662,42.0688175 C10.4500466,41.9360998 10.4426097,41.8118714 10.5753273,41.6622518 L11.1433588,41.0218798 C11.2760764,40.8722602 11.4003048,40.8648233 11.5499244,40.997541 L12.1783268,41.554955 C12.3698399,41.7248336 12.4800705,41.6728988 12.5650098,41.5771423 L12.6446404,41.4873705 C12.7295797,41.3916139 12.7679928,41.2759747 12.5764797,41.1060962 L11.4633097,40.118677 C11.3136901,39.9859594 11.3062532,39.861731 11.4389709,39.7121114 L12.0707068,38.999922 C12.2034244,38.8503023 12.3276528,38.8428655 12.4772724,38.9755831 L14.1470274,40.4567118 C14.8113385,41.0459781 14.8365533,41.6565027 14.3693873,42.1831637 L14.0614824,42.5302812 C13.7907384,42.8355053 13.4992358,42.9832965 13.1350399,42.8634244 C13.6451987,43.433584 13.5865266,43.873454 13.1193605,44.400115 L12.58849,44.9985935 C12.0416934,45.6150264 11.3122491,45.6416933 10.5461967,44.962179 L8.65500469,43.2846282 C8.50538507,43.1519105 8.49794819,43.0276821 8.63066582,42.8780625 L9.25178433,42.1778427 C9.38450196,42.0282231 9.50873035,42.0207862 9.65834997,42.1535038 Z M19.8160956,48.7909689 C19.3176364,49.6300842 18.5699268,49.9489358 16.8504284,48.9275029 C15.1309299,47.90607 15.0464023,47.0928449 15.5448615,46.2537297 L16.9380959,43.9083338 C17.4365552,43.0692186 18.1952285,42.7475747 19.9147269,43.7690076 C21.6342254,44.7904404 21.7077893,45.6064578 21.2093301,46.445573 L19.8160956,48.7909689 Z M17.2532524,46.9335829 C17.1429377,47.1192888 17.143759,47.3058774 17.6389745,47.6000501 C18.1410681,47.8983085 18.2984406,47.8056917 18.4087554,47.6199858 L19.5078171,45.7698055 C19.6140462,45.5909777 19.6201029,45.4084747 19.1180093,45.1102163 C18.6227938,44.8160437 18.4585432,44.9045748 18.3523142,45.0834026 L17.2532524,46.9335829 Z M23.6269554,46.6648335 L23.3046122,47.6367754 L23.8741094,47.8256483 C24.1398747,47.913789 24.2585805,47.7845879 24.3265747,47.5795689 L24.4121971,47.3213969 C24.4801914,47.1163779 24.4622179,46.9418472 24.1964525,46.8537065 L23.6269554,46.6648335 Z M21.9937114,50.674554 L20.824344,50.2867349 C20.6345116,50.2237772 20.5786867,50.1125496 20.6416444,49.9227172 L22.2735067,45.0022618 C22.3364644,44.8124294 22.447692,44.7566046 22.6375244,44.8195622 L25.1660917,45.6581582 C26.305086,46.0359041 26.4907261,46.6706086 26.2414138,47.4223448 L26.1255717,47.7716364 C25.9845466,48.1968609 25.7775082,48.4653364 25.4132603,48.4962469 C25.9474244,48.7408296 26.1784323,49.264153 25.9668946,49.9019898 L25.4330137,51.5117684 C25.3700561,51.7016008 25.2588284,51.7574256 25.0689961,51.694468 L23.8920353,51.3041305 C23.7022029,51.2411729 23.646378,51.1299453 23.7093357,50.9401129 L24.0946365,49.7783387 C24.1701857,49.5505398 24.1269907,49.4266439 23.9143785,49.3561314 L22.8513171,49.0035685 L22.3577291,50.4918544 C22.2947714,50.6816868 22.1835438,50.7375117 21.9937114,50.674554 Z M26.9423314,51.2395652 C26.7426941,51.2275264 26.6601507,51.1343889 26.6721895,50.9347516 L26.7294943,49.9844779 C26.7415331,49.7848405 26.8346706,49.7022972 27.0343079,49.714336 L27.8248718,49.7620097 L27.9866734,47.0788838 L27.1961095,47.0312101 C26.9964722,47.0191713 26.9139289,46.9260338 26.9259677,46.7263965 L26.9842355,45.7601518 C26.9962743,45.5605144 27.0894118,45.4779711 27.2890492,45.4900099 L30.6908694,45.6951512 C30.8905068,45.70719 30.9730501,45.8003275 30.9610113,45.9999649 L30.9027435,46.9662096 C30.8907046,47.1658469 30.7975671,47.2483903 30.5979298,47.2363515 L29.8233369,47.1896409 L29.6615353,49.8727667 L30.4361282,49.9194773 C30.6357655,49.9315161 30.7183089,50.0246536 30.7062701,50.224291 L30.6489653,51.1745647 C30.6369265,51.374202 30.543789,51.4567454 30.3441517,51.4447066 L26.9423314,51.2395652 Z M36.3841683,50.444283 L33.8817547,50.7414808 C32.5471342,50.8999862 31.8661624,50.457207 31.735018,49.3529674 L31.4406507,46.8743863 C31.3095063,45.7701467 31.8678251,45.1801838 33.2024456,45.0216784 L35.1884881,44.7858072 C35.3870924,44.7622201 35.4848566,44.8392276 35.5084437,45.0378318 L35.6226053,45.9990764 C35.6461925,46.1976807 35.5691849,46.2954449 35.3705807,46.319032 L33.7181933,46.5152768 C33.3845382,46.5549032 33.2486947,46.6999361 33.2807732,46.9700379 L33.5062661,48.8686945 C33.5383446,49.1387963 33.6716594,49.2438066 33.9179287,49.2145585 L34.6885132,49.1230405 L34.5413295,47.88375 C34.5177424,47.6851458 34.5947499,47.5873816 34.7933542,47.5637944 L36.0247005,47.4175543 C36.2233048,47.3939672 36.321069,47.4709747 36.3446561,47.6695789 L36.6361929,50.1243275 C36.65978,50.3229317 36.5827725,50.4206959 36.3841683,50.444283 Z M40.3165411,44.3094559 L40.6461174,45.278969 L41.2141914,45.0858579 C41.4792926,44.9957393 41.4959652,44.8210796 41.4264452,44.616573 L41.3389015,44.3590461 C41.2693815,44.1545394 41.1497163,44.0262263 40.8846151,44.1163448 L40.3165411,44.3094559 Z M41.4342655,48.4922823 L40.2678201,48.8888037 C40.0784621,48.9531741 39.9668216,48.8981795 39.9024513,48.7088215 L38.2339714,43.8006619 C38.169601,43.6113039 38.2245956,43.4996634 38.4139536,43.435293 L40.9362023,42.5778798 C42.0723503,42.1916576 42.6034308,42.5856951 42.8583374,43.3355528 L42.9767789,43.6839715 C43.1209685,44.1081335 43.1179206,44.4471537 42.8461458,44.6916337 C43.4196697,44.5642668 43.9197023,44.8421147 44.1359867,45.4783576 L44.6818474,47.0841135 C44.7462178,47.2734715 44.6912232,47.385112 44.5018652,47.4494824 L43.3278456,47.8485786 C43.1384875,47.912949 43.0268471,47.8579544 42.9624767,47.6685964 L42.5685301,46.5097254 C42.4912856,46.2824958 42.3820698,46.2097778 42.1699889,46.2818726 L41.109584,46.6423466 L41.6142477,48.1269134 C41.678618,48.3162714 41.6236235,48.4279119 41.4342655,48.4922823 Z M47.4538298,45.7423437 L45.9958299,46.43926 C45.8153844,46.525512 45.6980374,46.4840668 45.6117854,46.3036213 L44.9114191,44.8384035 C44.821717,44.6507402 44.8666123,44.5406111 45.0470578,44.4543591 L46.5050577,43.7574428 C46.6855032,43.6711908 46.7994001,43.7054182 46.8891022,43.8930815 L47.5894685,45.3582993 C47.6757205,45.5387448 47.6342753,45.6560917 47.4538298,45.7423437 Z M52.0490242,43.0819891 L50.9795983,43.709626 C50.8071102,43.8108578 50.6866735,43.779505 50.5854417,43.6070169 L47.9615145,39.1361264 C47.8602827,38.9636384 47.8916355,38.8432017 48.0641235,38.7419699 L51.1413105,36.9359953 C51.3137986,36.8347635 51.4342353,36.8661163 51.535467,37.0386043 L52.0173302,37.8596475 C52.118562,38.0321356 52.0872092,38.1525723 51.9147212,38.253804 L50.155343,39.286368 L50.5764671,40.0039183 L51.776984,39.2993453 C51.949472,39.1981135 52.0699088,39.2294663 52.1711405,39.4019543 L52.657053,40.229897 C52.7582847,40.4023851 52.726932,40.5228218 52.5544439,40.6240536 L51.353927,41.3286266 L52.1516333,42.6878325 C52.2528651,42.8603206 52.2215123,42.9807573 52.0490242,43.0819891 Z M54.2453602,36.3681402 L54.82705,37.2108816 L55.3208438,36.8700477 C55.5512809,36.7109919 55.5196471,36.5384135 55.3969469,36.3606478 L55.2424355,36.1367946 C55.1197354,35.9590288 54.9695911,35.8682506 54.739154,36.0273064 L54.2453602,36.3681402 Z M56.462343,40.0870556 L55.4484198,40.7869011 C55.2838219,40.9005124 55.1614099,40.8780783 55.0477986,40.7134803 L52.102994,36.4471022 C51.9893827,36.2825043 52.0118168,36.1600923 52.1764148,36.046481 L54.3688591,34.5331786 C55.3564466,33.8515109 55.9749134,34.085628 56.4248141,34.7374358 L56.6338588,35.040296 C56.8883481,35.4089953 56.9779514,35.7359743 56.783227,36.0453518 C57.3002085,35.7662781 57.8570924,35.8970921 58.2388264,36.4501411 L59.2022501,37.8459315 C59.3158614,38.0105294 59.2934273,38.1329414 59.1288293,38.2465527 L58.1083222,38.9509427 C57.9437243,39.064554 57.8213123,39.0421199 57.707701,38.8775219 L57.0123999,37.8701827 C56.8760663,37.6726652 56.7511493,37.6325188 56.5667996,37.7597634 L55.6450513,38.3959866 L56.5357638,39.6864343 C56.6493751,39.8510322 56.6269409,39.9734443 56.462343,40.0870556 Z M63.7624219,35.1858712 L60.5924285,37.1172142 C60.4216315,37.2212736 60.3006946,37.191909 60.1966352,37.021112 L57.4994148,32.5940522 C57.3953554,32.4232552 57.4247199,32.3023183 57.595517,32.1982589 L60.7655104,30.2669159 C60.9363074,30.1628564 61.0572443,30.192221 61.1613037,30.3630181 L61.6483019,31.1623483 C61.7523613,31.3331453 61.7229967,31.4540822 61.5521997,31.5581416 L59.6666001,32.7069577 L59.9871032,33.2330127 L61.3193202,32.4213491 C61.4901173,32.3172897 61.6110542,32.3466542 61.7151136,32.5174513 L62.1604879,33.2484627 C62.2645474,33.4192598 62.2351828,33.5401966 62.0643858,33.6442561 L60.7321687,34.4559196 L61.0901331,35.0434615 L62.9757327,33.8946454 C63.1465297,33.790586 63.2674666,33.8199505 63.371526,33.9907476 L63.8585241,34.7900778 C63.9625836,34.9608749 63.933219,35.0818117 63.7624219,35.1858712 Z M65.6653948,32.5550475 L64.819519,33.4062197 C64.6785397,33.5480818 64.5540895,33.5484702 64.4122275,33.4074909 L60.7351635,29.7533075 C60.5933014,29.6123282 60.592913,29.487878 60.7338923,29.346016 L61.3203662,28.7558699 C61.4669847,28.6083334 61.5969328,28.5570159 61.8062883,28.5733331 L64.1600226,28.7243799 L62.951358,27.5232363 C62.809496,27.382257 62.8091076,27.2578068 62.9500869,27.1159447 L63.7959626,26.2647725 C63.9369419,26.1229105 64.0613921,26.1225221 64.2032542,26.2635014 L67.8803182,29.9176847 C68.0221802,30.058664 68.0225686,30.1831142 67.8815893,30.3249763 L67.0357136,31.1761485 C66.8947343,31.3180105 66.7702841,31.3183989 66.628422,31.1774196 L65.9304608,30.4838015 L63.7915447,30.2868293 L65.6641236,32.147756 C65.8059857,32.2887353 65.8063741,32.4131855 65.6653948,32.5550475 Z M71.0658242,25.6611515 L69.8808207,27.212303 C69.0649167,28.2803089 68.2728875,28.4604916 67.3892398,27.7854282 L65.4121574,26.2750344 C64.5221525,25.5951144 64.4877485,24.7835774 65.3036525,23.7155715 L66.488656,22.16442 C66.6100703,22.0054906 66.7334215,21.9889839 66.892351,22.1103982 L67.6615695,22.6980433 C67.820499,22.8194576 67.8370056,22.9428089 67.7155913,23.1017383 L66.7394205,24.3795311 C66.5354444,24.6465326 66.5448844,24.8450241 66.7610285,25.0101476 L68.2740369,26.1660116 C68.4838237,26.3262784 68.6714563,26.2783406 68.8754323,26.0113392 L69.8516032,24.7335464 C69.9730174,24.5746169 70.0963687,24.5581103 70.2552981,24.6795245 L71.0118023,25.2574566 C71.1707318,25.3788709 71.1872385,25.5022221 71.0658242,25.6611515 Z M72.6901647,23.0077253 L72.0024401,24.0395368 C71.8915168,24.205958 71.7694852,24.230377 71.603064,24.1194537 L67.2894263,21.2443213 C67.1230051,21.133398 67.0985861,21.0113664 67.2095094,20.8449452 L67.8972339,19.8131337 C68.0081573,19.6467125 68.1301889,19.6222935 68.2966101,19.7332168 L69.7411461,20.6960312 L70.4821139,19.5843375 L69.0375778,18.6215231 C68.8711566,18.5105998 68.8467375,18.3885682 68.9576609,18.222147 L69.6453854,17.1903356 C69.7563087,17.0239143 69.8783403,16.9994953 70.0447615,17.1104186 L74.3583992,19.985551 C74.5248204,20.0964743 74.5492395,20.2185059 74.4383161,20.3849271 L73.7505916,21.4167386 C73.6396683,21.5831598 73.5176367,21.6075788 73.3512155,21.4966555 L71.8733952,20.5116565 L71.1324274,21.6233501 L72.6102477,22.6083492 C72.7766689,22.7192725 72.801088,22.8413041 72.6901647,23.0077253 Z" id="CC3-Orig-R.-French-Copy"></path>
            </g>
            <g id="Vest" transform="translate(163.000000, 263.000000) scale(-1, 1) translate(-163.000000, -263.000000) translate(12.000000, 175.000000)">
                <path d="M13,11 C20.0098454,12.3814092 24.9007895,13.3233817 27.6728324,13.8259174 C31.6528619,14.5474456 34.7792666,20.2890511 37.4163676,20.6657787 C40.7025361,21.1352301 44.152499,16.3567996 47.4019351,16.7154421 C65.6666048,18.7313267 83.3510094,18.9967529 100.455149,17.5117206 C103.48505,47.1674283 99.3287305,71.4348407 87.9861916,90.3139581 L17.5622726,83.7696094 L13,11 Z" id="Rectangle-3" fill="#FFFFFF"></path>
                <g id="Rectangle-10">
                    <use fill="#323033" fill-rule="evenodd" xlink:href="#path-1"></use>
                    <path stroke="#979797" stroke-width="1" d="M1.24528801,7.58361354 C2.06613566,32.138595 4.08218634,53.2469366 7.2924642,70.9071212 C10.4313442,88.1745364 17.6652755,116.304342 28.9929104,155.287083 C29.4059702,156.70858 29.5545392,156.952291 30.1582627,157.106904 C30.6079792,157.222076 31.3896939,156.91216 32.4241357,156.137408 L45.0037997,145.073991 L39.8817938,71.121368 L12.3867625,10.7300367 L1.24528801,7.58361354 Z"></path>
                </g>
                <g id="Rectangle-9">
                    <use fill="#323033" fill-rule="evenodd" xlink:href="#path-2"></use>
                    <path stroke="#979797" stroke-width="1" d="M82.543486,18.0931596 L38.4230746,73.3550768 C40.7362458,117.815751 42.7070344,142.046769 44.2755925,145.641434 C45.8099375,149.157692 62.2334605,159.231702 93.1183644,175.497241 L289.216282,171.132089 C299.483754,151.441525 302.767273,131.965457 299.076714,112.687746 C296.408575,98.7506706 294.455875,92.0181587 281.368339,49.3928797 C279.734345,44.0710622 278.416002,39.7315004 277.170584,35.5595612 C273.193775,22.2379254 270.187106,11.3432319 267.800993,1.32266487 C202.788986,12.4119359 141.036499,18.0022402 82.543486,18.0931596 Z"></path>
                </g>
                <path d="M180.388959,100.249129 C195.333033,100.249129 204.796529,90.5639051 204.796529,71.9935709 C204.796529,53.4232368 195.333033,33 180.388959,33 C165.444885,33 148,41.6645315 148,69.125152 C148,96.5857724 165.444885,100.249129 180.388959,100.249129 Z" id="Oval-3" stroke="#979797" fill="#FFFFFF"></path>
                <g id="buttons" transform="translate(42.000000, 84.000000)" fill="#000000" stroke="#979797">
                    <ellipse id="Oval-5" cx="3" cy="4.5" rx="3" ry="4.5"></ellipse>
                    <ellipse id="Oval-5-Copy" cx="4" cy="22.5" rx="3" ry="4.5"></ellipse>
                    <ellipse id="Oval-5-Copy-2" cx="5" cy="40.5" rx="3" ry="4.5"></ellipse>
                </g>
                <g id="Bowtie" transform="translate(36.500000, 20.500000) rotate(4.000000) translate(-36.500000, -20.500000) ">
                    <use fill="#302A2A" fill-rule="evenodd" xlink:href="#path-3"></use>
                    <path stroke="#979797" stroke-width="1" d="M11.5534074,8.74530676 L13.0335386,29.8852386 L36.8661262,23.5380246 L61.4478867,32.2731757 L59.8003584,8.74240032 L36.8539728,18.363979 L11.5534074,8.74530676 Z"></path>
                </g>
                <g id="Hand_2" transform="translate(111.000000, 43.000000)">
                    <path d="M12.8171085,4.37658621 C12.8171085,4.37658621 10.8671085,14.7665862 12.8171085,24.5065862 C14.7671085,34.2465862 20.6071085,48.5065862 32.2971085,45.9365862 C43.9871085,43.3665862 37.4871085,26.1365862 37.4871085,26.1365862 C37.4871085,26.1365862 33.9171085,12.1365862 35.8671085,2.76658621" id="Shape" stroke="#000000" stroke-width="3" fill="#F4D5B8" fill-rule="nonzero" transform="translate(25.619782, 24.503889) scale(-1, 1) rotate(-72.000000) translate(-25.619782, -24.503889) "></path>
                    <g id="Rectangle" transform="translate(47.766613, 21.806798) scale(-1, 1) rotate(-80.000000) translate(-47.766613, -21.806798) ">
                        <use fill="#FFFFFF" fill-rule="evenodd" xlink:href="#path-4"></use>
                        <path stroke="#979797" stroke-width="1" d="M64.4217066,4.51382924 L31.1009962,5.50059401 L31.5477773,38.0550168 L63.2840446,39.0991328 L64.4217066,4.51382924 Z"></path>
                    </g>
                    <rect id="Rectangle-11" fill="#FFFFFF" transform="translate(66.987713, 20.733006) scale(-1, 1) rotate(-86.000000) translate(-66.987713, -20.733006) " x="47.1881775" y="15.9430064" width="39.5990715" height="9.58"></rect>
                    <g id="napkin-copy" transform="translate(6.000000, 2.000000)">
                        <g id="Rectangle-8" transform="translate(26.895590, 40.061085) scale(-1, 1) rotate(183.000000) translate(-26.895590, -40.061085) ">
                            <use fill="#FFFFFF" fill-rule="evenodd" xlink:href="#path-5"></use>
                            <path stroke="#979797" stroke-width="1.2" d="M2.62912843,2.17463811 L6.45659067,75.2069683 L51.1594181,78.2280125 L47.1482513,1.8540112 L2.62912843,2.17463811 Z"></path>
                        </g>
                        <g id="logo-copy-2" transform="translate(17.000000, 68.500000) scale(-1, 1) translate(-17.000000, -68.500000) translate(6.000000, 60.000000)" fill="#EE4A73">
                            <path d="M4.8888131,4.85714286 C6.21907351,4.85714286 7.33333333,3.80578081 7.33333333,2.42796008 C7.33333333,1.05105637 6.21907351,0 4.8888131,0 C3.55855269,0 2.44444444,1.05105637 2.44444444,2.42796008 C2.44444444,3.80578081 3.55855269,4.85714286 4.8888131,4.85714286" id="Fill-4-Copy"></path>
                            <path d="M0.814814815,13.0285242 C0.698605533,13.4831287 0.64019411,13.9740385 0.64019411,14.3745235 C0.64019411,15.9524477 1.57146363,17 3.5505801,17 C5.19199018,17 6.52256805,16.1043208 7.48058902,14.6583131 L6.8956158,16.8155424 L10.1548751,16.8155424 L12.0176595,9.95092361 C12.4832329,8.21278283 13.3854195,7.31067695 14.7534248,7.31067695 C15.830232,7.31067695 16.4996319,7.92594902 16.4996319,8.94170604 C16.4996319,9.23609405 16.4704261,9.55663986 16.3540942,9.90435822 L15.3934962,13.059643 C15.2479585,13.5142475 15.1900379,13.9691903 15.1900379,14.3966223 C15.1900379,15.8946074 16.150145,16.9903036 18.1583445,16.9903036 C19.8754685,16.9903036 21.2432285,15.9746593 22,13.5411946 L20.7196118,13.0869283 C20.0791722,14.7172809 19.5262271,15.0120071 19.0897367,15.0120071 C18.6531236,15.0120071 18.4202142,14.7447917 18.4202142,14.210248 C18.4202142,13.9696413 18.4786256,13.7025386 18.5657519,13.380978 L19.4972668,10.3068727 C19.7299308,9.58505265 19.8174253,8.94497577 19.8174253,8.35687624 C19.8174253,6.05724473 18.3038822,4.85714286 16.4704261,4.85714286 C14.7534248,4.85714286 13.007095,6.28014978 12.1342369,7.77779664 L12.7743083,5.08963159 L7.79780232,5.08963159 L7.09919679,7.45736358 L9.42755466,7.45736358 L7.99389781,12.731543 C6.86788264,15.0311745 4.79967648,15.0684944 4.54013833,15.0150513 C4.11395582,14.9267688 3.84141008,14.7780526 3.84141008,14.2692158 C3.84141008,13.975617 3.89957608,13.5539352 4.04511379,13.0454366 L6.22805667,5.08963159 L0.698605533,5.08963159 L0,7.45736358 L2.29902945,7.45736358 L0.814814815,13.0285242" id="Fill-5-Copy"></path>
                        </g>
                    </g>
                </g>
            </g>
            <g id="Title" transform="translate(69.000000, 329.000000) scale(-1, 1) translate(-69.000000, -329.000000) translate(42.000000, 317.000000)" fill="#EE4A73">
                <path d="M7.4538945,8.04 L7.4538945,11.112 L9.2538945,11.112 C10.0938945,11.112 10.3098945,10.632 10.3098945,9.984 L10.3098945,9.168 C10.3098945,8.52 10.0938945,8.04 9.2538945,8.04 L7.4538945,8.04 Z M6.5898945,21 L2.8938945,21 C2.2938945,21 2.0298945,20.736 2.0298945,20.136 L2.0298945,4.584 C2.0298945,3.984 2.2938945,3.72 2.8938945,3.72 L10.8858945,3.72 C14.4858945,3.72 15.6138945,5.352 15.6138945,7.728 L15.6138945,8.832 C15.6138945,10.176 15.2778945,11.136 14.2698945,11.568 C16.0218945,11.76 17.1738945,13.032 17.1738945,15.048 L17.1738945,20.136 C17.1738945,20.736 16.9098945,21 16.3098945,21 L12.5898945,21 C11.9898945,21 11.7258945,20.736 11.7258945,20.136 L11.7258945,16.464 C11.7258945,15.744 11.4858945,15.432 10.8138945,15.432 L7.4538945,15.432 L7.4538945,20.136 C7.4538945,20.736 7.1898945,21 6.5898945,21 Z M29.0766315,21 L25.1886315,21 C24.5646315,21 24.3246315,20.736 24.3246315,20.136 L24.3246315,17.064 L20.6526315,12.144 C19.9086315,11.16 19.7406315,10.68 19.7406315,9.192 L19.7406315,4.584 C19.7406315,3.984 20.0046315,3.72 20.6046315,3.72 L24.3006315,3.72 C24.9006315,3.72 25.1646315,3.984 25.1646315,4.584 L25.1646315,8.52 C25.1646315,8.856 25.1646315,9.192 25.3806315,9.528 L26.4846315,11.256 C26.6526315,11.544 26.7966315,11.664 27.0606315,11.664 L27.3006315,11.664 C27.5646315,11.664 27.7086315,11.544 27.8766315,11.256 L28.9806315,9.528 C29.1966315,9.192 29.1966315,8.856 29.1966315,8.52 L29.1966315,4.584 C29.1966315,3.984 29.4606315,3.72 30.0606315,3.72 L33.6366315,3.72 C34.2366315,3.72 34.5006315,3.984 34.5006315,4.584 L34.5006315,9.192 C34.5006315,10.68 34.3086315,11.16 33.5886315,12.144 L29.9406315,17.088 L29.9406315,20.136 C29.9406315,20.736 29.6766315,21 29.0766315,21 Z M50.4113685,21 L39.2753685,21 C38.6753685,21 38.4113685,20.736 38.4113685,20.136 L38.4113685,4.584 C38.4113685,3.984 38.6753685,3.72 39.2753685,3.72 L50.4113685,3.72 C51.0113685,3.72 51.2753685,3.984 51.2753685,4.584 L51.2753685,7.392 C51.2753685,7.992 51.0113685,8.256 50.4113685,8.256 L43.7873685,8.256 L43.7873685,10.104 L48.4673685,10.104 C49.0673685,10.104 49.3313685,10.368 49.3313685,10.968 L49.3313685,13.536 C49.3313685,14.136 49.0673685,14.4 48.4673685,14.4 L43.7873685,14.4 L43.7873685,16.464 L50.4113685,16.464 C51.0113685,16.464 51.2753685,16.728 51.2753685,17.328 L51.2753685,20.136 C51.2753685,20.736 51.0113685,21 50.4113685,21 Z" id="rye-copy-2" transform="translate(26.652631, 12.360000) scale(-1, 1) translate(-26.652631, -12.360000) "></path>
            </g>
        </g>
    </g>
</svg>