<?xml version="1.0" encoding="UTF-8" standalone="no"?>
<svg width="210px" height="210px" viewBox="0 0 210 210" version="1.1" xmlns="http://www.w3.org/2000/svg" xmlns:xlink="http://www.w3.org/1999/xlink">
    <!-- Generator: Sketch 46.1 (44463) - http://www.bohemiancoding.com/sketch -->
    <title>rye logo</title>
    <desc>Created with Sketch.</desc>
    <defs>
        <circle id="path-1" cx="105" cy="105" r="105"></circle>
        <filter x="-6.9%" y="-6.0%" width="113.8%" height="113.8%" filterUnits="objectBoundingBox" id="filter-2">
            <feOffset dx="0" dy="2" in="SourceAlpha" result="shadowOffsetOuter1"></feOffset>
            <feGaussianBlur stdDeviation="4.5" in="shadowOffsetOuter1" result="shadowBlurOuter1"></feGaussianBlur>
            <feColorMatrix values="0 0 0 0 0   0 0 0 0 0   0 0 0 0 0  0 0 0 0.102156929 0" type="matrix" in="shadowBlurOuter1"></feColorMatrix>
        </filter>
    </defs>
    <g id="Page-1" stroke="none" stroke-width="1" fill="none" fill-rule="evenodd">
        <g id="Rye-Logo" transform="translate(-95.000000, -45.000000)">
            <g id="Group-3" transform="translate(95.000000, 45.000000)">
                <g id="Oval">
                    <use fill="black" fill-opacity="1" filter="url(#filter-2)" xlink:href="#path-1"></use>
                    <use fill="#FC3768" fill-rule="evenodd" xlink:href="#path-1"></use>
                </g>
                <circle id="Oval-Copy" stroke="#FFFFFF" stroke-width="2" fill="#FC3768" cx="105" cy="105" r="93.8823529"></circle>
                <path d="M88.3233397,159.04 L88.3233397,162.112 L90.1233397,162.112 C90.9633397,162.112 91.1793397,161.632 91.1793397,160.984 L91.1793397,160.168 C91.1793397,159.52 90.9633397,159.04 90.1233397,159.04 L88.3233397,159.04 Z M87.4593397,172 L83.7633397,172 C83.1633397,172 82.8993397,171.736 82.8993397,171.136 L82.8993397,155.584 C82.8993397,154.984 83.1633397,154.72 83.7633397,154.72 L91.7553397,154.72 C95.3553397,154.72 96.4833397,156.352 96.4833397,158.728 L96.4833397,159.832 C96.4833397,161.176 96.1473397,162.136 95.1393397,162.568 C96.8913397,162.76 98.0433397,164.032 98.0433397,166.048 L98.0433397,171.136 C98.0433397,171.736 97.7793397,172 97.1793397,172 L93.4593397,172 C92.8593397,172 92.5953397,171.736 92.5953397,171.136 L92.5953397,167.464 C92.5953397,166.744 92.3553397,166.432 91.6833397,166.432 L88.3233397,166.432 L88.3233397,171.136 C88.3233397,171.736 88.0593397,172 87.4593397,172 Z M109.49134,172 C110.09134,172 110.35534,171.736 110.35534,171.136 L110.35534,168.088 L114.00334,163.144 C114.72334,162.16 114.91534,161.68 114.91534,160.192 L114.91534,155.584 C114.91534,154.984 114.65134,154.72 114.05134,154.72 L110.47534,154.72 C109.87534,154.72 109.61134,154.984 109.61134,155.584 L109.61134,159.52 C109.61134,159.856 109.61134,160.192 109.39534,160.528 L108.29134,162.256 C108.12334,162.544 107.97934,162.664 107.71534,162.664 L107.47534,162.664 C107.21134,162.664 107.06734,162.544 106.89934,162.256 L105.79534,160.528 C105.57934,160.192 105.57934,159.856 105.57934,159.52 L105.57934,155.584 C105.57934,154.984 105.31534,154.72 104.71534,154.72 L101.01934,154.72 C100.41934,154.72 100.15534,154.984 100.15534,155.584 L100.15534,160.192 C100.15534,161.68 100.32334,162.16 101.06734,163.144 L104.73934,168.064 L104.73934,171.136 C104.73934,171.736 104.97934,172 105.60334,172 L109.49134,172 Z M129.65134,172 C130.25134,172 130.51534,171.736 130.51534,171.136 L130.51534,168.328 C130.51534,167.728 130.25134,167.464 129.65134,167.464 L123.02734,167.464 L123.02734,165.4 L127.70734,165.4 C128.30734,165.4 128.57134,165.136 128.57134,164.536 L128.57134,161.968 C128.57134,161.368 128.30734,161.104 127.70734,161.104 L123.02734,161.104 L123.02734,159.256 L129.65134,159.256 C130.25134,159.256 130.51534,158.992 130.51534,158.392 L130.51534,155.584 C130.51534,154.984 130.25134,154.72 129.65134,154.72 L118.51534,154.72 C117.91534,154.72 117.65134,154.984 117.65134,155.584 L117.65134,171.136 C117.65134,171.736 117.91534,172 118.51534,172 L129.65134,172 Z" id="Rye" fill="#FFFFFF"></path>
                <path d="M106.018857,113.602081 C106.018857,113.602081 107.379503,114.013666 107.709471,115.421112 C108.039438,116.828558 108.273009,119.059174 108.273009,119.059174 L108.273009,122.697235 L108.273009,139.328374 L107.145933,139.588235 L104.891782,139.588235 L103.764706,139.328374 L103.764706,122.697235 L103.764706,119.059174 C103.764706,119.059174 104.094673,116.417386 104.328244,115.421112 C104.561814,114.424839 106.018857,113.602081 106.018857,113.602081 Z" id="Rectangle" fill="#FFFFFF"></path>
                <g id="KERNEL" transform="translate(84.000000, 96.278029)" fill="#FFFFFF">
                    <path d="M10.3675591,15.80233 L11.6969399,15.8158196 L21.3799992,15.8035991 C21.9353543,15.8028982 22.1844235,15.4087979 21.930118,14.9112345 L19.0085342,9.19498804 C17.014463,5.99709131 14.4639308,2.18859125 11.1207904,1.40697797 C9.81080793,1.10070915 11.6969399,1.40697797 6.37941677,0.400772035 L2.37218419,-0.0483821885 C1.82728587,-0.109457601 1.41950409,0.29464481 1.45955596,0.829856417 L1.72658403,4.39814295 C1.66484388,4.5800808 2.2157294,8.65837697 2.85571988,11.3214147 C3.34661621,13.3640629 4.35971111,15.2437451 6.37941677,15.5907815 C7.41183145,15.7681764 8.1012235,15.9131998 9.03817834,15.80233 L10.3675591,15.80233 Z" id="Combined-Shape"></path>
                </g>
                <g id="KERNEL" transform="translate(115.786846, 104.499488) scale(-1, 1) translate(-115.786846, -104.499488) translate(103.764706, 96.278029)" fill="#FFFFFF">
                    <path d="M10.3675591,15.80233 L11.6969399,15.8158196 L21.3799992,15.8035991 C21.9353543,15.8028982 22.1844235,15.4087979 21.930118,14.9112345 L19.0085342,9.19498804 C17.014463,5.99709131 14.4639308,2.18859125 11.1207904,1.40697797 C9.81080793,1.10070915 11.6969399,1.40697797 6.37941677,0.400772035 L2.37218419,-0.0483821885 C1.82728587,-0.109457601 1.41950409,0.29464481 1.45955596,0.829856417 L1.72658403,4.39814295 C1.66484388,4.5800808 2.2157294,8.65837697 2.85571988,11.3214147 C3.34661621,13.3640629 4.35971111,15.2437451 6.37941677,15.5907815 C7.41183145,15.7681764 8.1012235,15.9131998 9.03817834,15.80233 L10.3675591,15.80233 Z" id="Combined-Shape"></path>
                </g>
                <g id="KERNEL" transform="translate(84.000000, 80.286596)" fill="#FFFFFF">
                    <path d="M10.3675591,15.80233 L11.6969399,15.8158196 L21.3799992,15.8035991 C21.9353543,15.8028982 22.1844235,15.4087979 21.930118,14.9112345 L19.0085342,9.19498804 C17.014463,5.99709131 14.4639308,2.18859125 11.1207904,1.40697797 C9.81080793,1.10070915 11.6969399,1.40697797 6.37941677,0.400772035 L2.37218419,-0.0483821885 C1.82728587,-0.109457601 1.41950409,0.29464481 1.45955596,0.829856417 L1.72658403,4.39814295 C1.66484388,4.5800808 2.2157294,8.65837697 2.85571988,11.3214147 C3.34661621,13.3640629 4.35971111,15.2437451 6.37941677,15.5907815 C7.41183145,15.7681764 8.1012235,15.9131998 9.03817834,15.80233 L10.3675591,15.80233 Z" id="Combined-Shape"></path>
                </g>
                <g id="KERNEL" transform="translate(115.786846, 88.508055) scale(-1, 1) translate(-115.786846, -88.508055) translate(103.764706, 80.286596)" fill="#FFFFFF">
                    <path d="M10.3675591,15.80233 L11.6969399,15.8158196 L21.3799992,15.8035991 C21.9353543,15.8028982 22.1844235,15.4087979 21.930118,14.9112345 L19.0085342,9.19498804 C17.014463,5.99709131 14.4639308,2.18859125 11.1207904,1.40697797 C9.81080793,1.10070915 11.6969399,1.40697797 6.37941677,0.400772035 L2.37218419,-0.0483821885 C1.82728587,-0.109457601 1.41950409,0.29464481 1.45955596,0.829856417 L1.72658403,4.39814295 C1.66484388,4.5800808 2.2157294,8.65837697 2.85571988,11.3214147 C3.34661621,13.3640629 4.35971111,15.2437451 6.37941677,15.5907815 C7.41183145,15.7681764 8.1012235,15.9131998 9.03817834,15.80233 L10.3675591,15.80233 Z" id="Combined-Shape"></path>
                </g>
                <g id="KERNEL" transform="translate(84.000000, 64.295163)" fill="#FFFFFF">
                    <path d="M10.3675591,15.80233 L11.6969399,15.8158196 L21.3799992,15.8035991 C21.9353543,15.8028982 22.1844235,15.4087979 21.930118,14.9112345 L19.0085342,9.19498804 C17.014463,5.99709131 14.4639308,2.18859125 11.1207904,1.40697797 C9.81080793,1.10070915 11.6969399,1.40697797 6.37941677,0.400772035 L2.37218419,-0.0483821885 C1.82728587,-0.109457601 1.41950409,0.29464481 1.45955596,0.829856417 L1.72658403,4.39814295 C1.66484388,4.5800808 2.2157294,8.65837697 2.85571988,11.3214147 C3.34661621,13.3640629 4.35971111,15.2437451 6.37941677,15.5907815 C7.41183145,15.7681764 8.1012235,15.9131998 9.03817834,15.80233 L10.3675591,15.80233 Z" id="Combined-Shape"></path>
                </g>
                <g id="KERNEL" transform="translate(115.786846, 72.516622) scale(-1, 1) translate(-115.786846, -72.516622) translate(103.764706, 64.295163)" fill="#FFFFFF">
                    <path d="M10.3675591,15.80233 L11.6969399,15.8158196 L21.3799992,15.8035991 C21.9353543,15.8028982 22.1844235,15.4087979 21.930118,14.9112345 L19.0085342,9.19498804 C17.014463,5.99709131 14.4639308,2.18859125 11.1207904,1.40697797 C9.81080793,1.10070915 11.6969399,1.40697797 6.37941677,0.400772035 L2.37218419,-0.0483821885 C1.82728587,-0.109457601 1.41950409,0.29464481 1.45955596,0.829856417 L1.72658403,4.39814295 C1.66484388,4.5800808 2.2157294,8.65837697 2.85571988,11.3214147 C3.34661621,13.3640629 4.35971111,15.2437451 6.37941677,15.5907815 C7.41183145,15.7681764 8.1012235,15.9131998 9.03817834,15.80233 L10.3675591,15.80233 Z" id="Combined-Shape"></path>
                </g>
                <g id="Group" transform="translate(84.000000, 33.644917)" fill="#FFFFFF">
                    <g id="KERNEL" transform="translate(0.000000, 14.798626)">
                        <path d="M10.3675591,15.80233 L11.6969399,15.8158196 L21.3799992,15.8035991 C21.9353543,15.8028982 22.1844235,15.4087979 21.930118,14.9112345 L19.0085342,9.19498804 C17.014463,5.99709131 14.4639308,2.18859125 11.1207904,1.40697797 C9.81080793,1.10070915 11.6969399,1.40697797 6.37941677,0.400772035 L2.37218419,-0.0483821885 C1.82728587,-0.109457601 1.41950409,0.29464481 1.45955596,0.829856417 L1.72658403,4.39814295 C1.66484388,4.5800808 2.2157294,8.65837697 2.85571988,11.3214147 C3.34661621,13.3640629 4.35971111,15.2437451 6.37941677,15.5907815 C7.41183145,15.7681764 8.1012235,15.9131998 9.03817834,15.80233 L10.3675591,15.80233 Z" id="Combined-Shape"></path>
                    </g>
                    <path d="M1.50276756,5.85786264 C1.50276756,5.34700629 1.91399526,4.93287539 2.42923815,4.93287539 L2.42923815,4.93287539 C2.94091372,4.93287539 3.35570873,5.34823789 3.35570873,5.85084815 L3.35570873,16.498827 C3.35570873,17.0058093 3.35570873,17.8299291 3.35570873,18.0872098 L3.35570873,17.4167997 C3.35570873,17.787057 2.94448103,18.0872098 2.42923815,18.0872098 L2.42923815,18.0872098 C1.91756257,18.0872098 1.50276756,17.6791021 1.50276756,17.1622225 L1.50276756,5.85786264 Z" id="Rectangle-2-Copy"></path>
                    <path d="M9.01660534,0.921813768 C9.01660534,0.412710082 9.42783305,0 9.94307593,0 L9.94307593,0 C10.4547515,0 10.8695465,0.424315514 10.8695465,0.922886242 L10.8695465,16.2425097 C10.8695465,16.7522057 10.8695465,17.5831491 10.8695465,18.0872098 L10.8695465,17.165396 C10.8695465,17.6744997 10.4583188,18.0872098 9.94307593,18.0872098 L9.94307593,18.0872098 C9.43140036,18.0872098 9.01660534,17.6754494 9.01660534,17.165396 L9.01660534,0.921813768 Z" id="Rectangle-2-Copy-2"></path>
                </g>
                <g id="Group-2" transform="translate(102.764706, 29.647059)" fill="#FFFFFF">
                    <g id="Group-Copy-7" transform="translate(12.544281, 27.296484) scale(-1, 1) translate(-12.544281, -27.296484) translate(0.044281, 18.796484)">
                        <g id="KERNEL" transform="translate(-0.000000, 0.000000)">
                            <path d="M10.3675591,15.80233 L11.6969399,15.8158196 L21.3799992,15.8035991 C21.9353543,15.8028982 22.1844235,15.4087979 21.930118,14.9112345 L19.0085342,9.19498804 C17.014463,5.99709131 14.4639308,2.18859125 11.1207904,1.40697797 C9.81080793,1.10070915 11.6969399,1.40697797 6.37941677,0.400772035 L2.37218419,-0.0483821885 C1.82728587,-0.109457601 1.41950409,0.29464481 1.45955596,0.829856417 L1.72658403,4.39814295 C1.66484388,4.5800808 2.2157294,8.65837697 2.85571988,11.3214147 C3.34661621,13.3640629 4.35971111,15.2437451 6.37941677,15.5907815 C7.41183145,15.7681764 8.1012235,15.9131998 9.03817834,15.80233 L10.3675591,15.80233 Z" id="Combined-Shape"></path>
                        </g>
                    </g>
                    <path d="M21.6911765,10.2533231 C21.6911765,9.74246675 22.1024042,9.32833585 22.6176471,9.32833585 L22.6176471,9.32833585 C23.1293226,9.32833585 23.5441176,9.74369835 23.5441176,10.2463086 L23.5441176,20.8942874 C23.5441176,21.4012698 23.5441176,22.2253895 23.5441176,22.4826702 L23.5441176,21.8122602 C23.5441176,22.1825174 23.1328899,22.4826702 22.6176471,22.4826702 L22.6176471,22.4826702 C22.1059715,22.4826702 21.6911765,22.0745626 21.6911765,21.557683 L21.6911765,10.2533231 Z" id="Rectangle-2"></path>
                    <path d="M2.48234917,0.924987249 C2.48234917,0.414130898 2.89357687,0 3.40881976,0 L3.40881976,0 C3.92049534,0 4.33529035,0.415362504 4.33529035,0.917972765 L4.33529035,11.5659516 C4.33529035,12.0729339 4.33529035,12.8970537 4.33529035,13.1543344 L4.33529035,12.4839244 C4.33529035,12.8541816 3.92406264,13.1543344 3.40881976,13.1543344 L3.40881976,13.1543344 C2.89714418,13.1543344 2.48234917,12.7462267 2.48234917,12.2293471 L2.48234917,0.924987249 Z" id="Rectangle-2-Copy-4"></path>
                    <path d="M14.524908,4.91967199 C14.524908,4.4105683 14.9361357,3.99785822 15.4513786,3.99785822 L15.4513786,3.99785822 C15.9630542,3.99785822 16.3778492,4.42217373 16.3778492,4.92074446 L16.3778492,20.240368 C16.3778492,20.750064 16.3778492,21.5810073 16.3778492,22.085068 L16.3778492,21.1632542 C16.3778492,21.6723579 15.9666215,22.085068 15.4513786,22.085068 L15.4513786,22.085068 C14.939703,22.085068 14.524908,21.6733076 14.524908,21.1632542 L14.524908,4.91967199 Z" id="Rectangle-2-Copy-3"></path>
                </g>
                <ellipse id="Oval-2" fill="#FFFFFF" cx="105.926471" cy="49.2882336" rx="4.01470588" ry="9.01764729"></ellipse>
            </g>
        </g>
    </g>
</svg>